<svg xmlns="http://www.w3.org/2000/svg" width="1512" height="228" viewBox="0 0 1512 228" fill="none"><path d="M132.035 54.8591H97.957C97.957 47.9874 94.9891 42.1806 89.0509 37.4411C83.1152 32.7015 75.8716 30.3317 67.3229 30.3317C58.2977 30.3317 51.4116 32.2285 46.543 35.9008C41.5576 39.692 39.1828 44.7881 39.1828 51.422C39.1828 57.11 40.9646 61.7307 44.5255 65.2866C48.0865 68.84 52.7193 71.5664 58.4168 73.2231C64.1168 74.8822 70.529 76.4224 77.4151 77.7274C84.3013 79.0299 91.1899 80.8078 98.076 82.9399C104.962 85.0719 111.255 87.9172 117.074 91.4706C122.772 95.0265 127.521 100.477 131.085 107.586C134.646 114.695 136.428 123.345 136.428 133.535C136.428 151.069 129.896 164.815 117.074 175.005C104.131 185.195 87.5073 190.288 67.3229 190.288C47.1384 190.288 30.8699 185.076 18.522 174.41C6.17408 163.867 0 149.529 0 131.281H34.076C34.076 139.577 37.1629 146.33 43.3369 151.78C49.5133 157.23 57.5855 159.957 67.3229 159.957C77.1769 159.957 85.1326 157.587 91.3066 152.609C97.3639 147.635 100.451 141.355 100.451 133.535C100.451 127.728 98.6691 122.988 95.1082 119.197C91.5448 115.525 86.7953 112.799 81.0953 111.14C75.2787 109.48 68.9855 107.94 62.0994 106.638C55.2108 105.333 48.3246 103.676 41.4385 101.542C34.5524 99.4095 28.1402 96.6856 22.4402 93.1297C16.7402 89.6927 12.1097 84.4801 8.54876 77.3708C4.98533 70.2614 3.20622 61.6118 3.20622 51.422C3.20622 35.4278 9.14182 22.8682 21.254 13.7432C33.3637 4.62067 48.6819 0 67.3229 0C86.3212 0 101.756 4.85845 113.868 14.5728C125.978 24.2897 132.035 37.7976 132.035 54.8591ZM275.468 115.76C275.468 103.911 271.195 93.8404 262.882 85.3096C254.571 76.8978 244.36 72.6312 232.486 72.6312C220.612 72.6312 210.401 76.8978 201.971 85.4285C193.542 93.9592 189.385 104.03 189.385 115.76C189.385 127.847 193.542 138.037 201.971 146.567C210.401 155.098 220.612 159.246 232.486 159.246C244.479 159.246 254.69 155.098 263.001 146.567C271.314 138.037 275.468 127.847 275.468 115.76ZM275.468 186.143V163.629H274.994C270.483 171.095 264.19 177.375 256.234 182.587C248.278 187.8 238.898 190.288 228.094 190.288C207.314 190.288 189.623 183.179 175.136 168.96C160.649 154.744 153.408 136.969 153.408 115.76C153.408 94.7888 160.649 77.133 175.136 62.9168C189.623 48.6981 207.314 41.47 228.094 41.47C247.209 41.47 262.882 49.6441 274.994 65.9973H275.468V45.6177H310.02V186.143H275.468ZM456.423 115.76C456.423 103.911 452.15 93.8404 443.837 85.3096C435.527 76.8978 425.315 72.6312 413.441 72.6312C401.567 72.6312 391.356 76.8978 382.926 85.4285C374.494 93.9592 370.34 104.03 370.34 115.76C370.34 127.847 374.494 138.037 382.926 146.567C391.356 155.098 401.567 159.246 413.441 159.246C425.434 159.246 435.646 155.098 443.956 146.567C452.269 138.037 456.423 127.847 456.423 115.76ZM456.423 186.143V163.629H455.949C451.438 171.095 445.145 177.375 437.189 182.587C429.234 187.8 419.854 190.288 409.049 190.288C388.269 190.288 370.576 183.179 356.092 168.96C341.605 154.744 334.361 136.969 334.361 115.76C334.361 94.7888 341.605 77.133 356.092 62.9168C370.576 48.6981 388.269 41.47 409.049 41.47C428.164 41.47 443.837 49.6441 455.949 65.9973H456.423V45.6177H490.976V186.143H456.423ZM647.354 54.8591H613.276C613.276 47.9874 610.308 42.1806 604.37 37.4411C598.434 32.7015 591.191 30.3317 582.642 30.3317C573.617 30.3317 566.73 32.2285 561.862 35.9008C556.876 39.692 554.502 44.7881 554.502 51.422C554.502 57.11 556.281 61.7307 559.844 65.2866C563.405 68.84 568.036 71.5664 573.736 73.2231C579.436 74.8822 585.848 76.4224 592.734 77.7274C599.62 79.0299 606.506 80.8078 613.395 82.9399C620.281 85.0719 626.574 87.9172 632.393 91.4706C638.091 95.0265 642.84 100.477 646.404 107.586C649.965 114.695 651.746 123.345 651.746 133.535C651.746 151.069 645.215 164.815 632.393 175.005C619.45 185.195 602.826 190.288 582.642 190.288C562.455 190.288 546.189 185.076 533.841 174.41C521.493 163.867 515.316 149.529 515.316 131.281H549.395C549.395 139.577 552.482 146.33 558.656 151.78C564.83 157.23 572.905 159.957 582.642 159.957C592.496 159.957 600.451 157.587 606.625 152.609C612.683 147.635 615.77 141.355 615.77 133.535C615.77 127.728 613.988 122.988 610.425 119.197C606.864 115.525 602.114 112.799 596.414 111.14C590.598 109.48 584.304 107.94 577.416 106.638C570.53 105.333 563.644 103.676 556.757 101.542C549.869 99.4095 543.459 96.6856 537.759 93.1297C532.059 89.6927 527.429 84.4801 523.868 77.3708C520.304 70.2614 518.523 61.6118 518.523 51.422C518.523 35.4278 524.461 22.8682 536.57 13.7432C548.683 4.62067 564.001 0 582.642 0C601.64 0 617.075 4.85845 629.187 14.5728C641.297 24.2897 647.354 37.7976 647.354 54.8591ZM803.135 54.8591H769.059C769.059 47.9874 766.091 42.1806 760.153 37.4411C754.217 32.7015 746.974 30.3317 738.425 30.3317C729.4 30.3317 722.514 32.2285 717.645 35.9008C712.66 39.692 710.285 44.7881 710.285 51.422C710.285 57.11 712.064 61.7307 715.627 65.2866C719.188 68.84 723.819 71.5664 729.519 73.2231C735.219 74.8822 741.631 76.4224 748.517 77.7274C755.403 79.0299 762.289 80.8078 769.178 82.9399C776.064 85.0719 782.357 87.9172 788.176 91.4706C793.874 95.0265 798.623 100.477 802.187 107.586C805.748 114.695 807.529 123.345 807.529 133.535C807.529 151.069 800.998 164.815 788.176 175.005C775.233 185.195 758.609 190.288 738.425 190.288C718.238 190.288 701.972 185.076 689.624 174.41C677.276 163.867 671.099 149.529 671.099 131.281H705.178C705.178 139.577 708.265 146.33 714.439 151.78C720.613 157.23 728.687 159.957 738.425 159.957C748.279 159.957 756.235 157.587 762.409 152.609C768.466 147.635 771.553 141.355 771.553 133.535C771.553 127.728 769.771 122.988 766.208 119.197C762.647 115.525 757.897 112.799 752.197 111.14C746.381 109.48 740.088 107.94 733.199 106.638C726.313 105.333 719.427 103.676 712.54 101.542C705.652 99.4095 699.242 96.6856 693.542 93.1297C687.842 89.6927 683.212 84.4801 679.648 77.3708C676.087 70.2614 674.306 61.6118 674.306 51.422C674.306 35.4278 680.244 22.8682 692.354 13.7432C704.466 4.62067 719.781 0 738.425 0C757.423 0 772.858 4.85845 784.97 14.5728C797.08 24.2897 803.135 37.7976 803.135 54.8591ZM866.304 115.998C866.304 127.847 870.46 138.037 878.771 146.567C887.084 155.098 897.295 159.246 909.288 159.246C921.159 159.246 931.254 155.098 939.684 146.567C948.113 138.037 952.389 127.847 952.389 115.998C952.389 104.03 948.113 93.8404 939.684 85.3096C931.254 76.8978 921.159 72.6312 909.288 72.6312C897.176 72.6312 887.084 76.8978 878.771 85.3096C870.46 93.8404 866.304 104.03 866.304 115.998ZM866.304 45.6177V68.2482H866.78C871.291 60.9012 877.465 54.5025 885.421 49.29C893.377 44.0774 902.757 41.47 913.68 41.47C934.341 41.47 952.032 48.6981 966.519 62.9168C981.003 77.133 988.366 94.9076 988.366 115.998C988.366 137.088 981.003 154.744 966.519 168.96C952.032 183.179 934.341 190.288 913.68 190.288C894.444 190.288 878.89 182.114 866.78 165.763H866.304V227.613H831.751V45.6177H866.304ZM1127.53 115.76C1127.53 103.911 1123.25 93.8404 1114.94 85.3096C1106.63 76.8978 1096.42 72.6312 1084.54 72.6312C1072.67 72.6312 1062.46 76.8978 1054.03 85.4285C1045.6 93.9592 1041.44 104.03 1041.44 115.76C1041.44 127.847 1045.6 138.037 1054.03 146.567C1062.46 155.098 1072.67 159.246 1084.54 159.246C1096.53 159.246 1106.75 155.098 1115.06 146.567C1123.37 138.037 1127.53 127.847 1127.53 115.76ZM1127.53 186.143V163.629H1127.05C1122.54 171.095 1116.24 177.375 1108.29 182.587C1100.34 187.8 1090.96 190.288 1080.15 190.288C1059.37 190.288 1041.68 183.179 1027.19 168.96C1012.71 154.744 1005.46 136.969 1005.46 115.76C1005.46 94.7888 1012.71 77.133 1027.19 62.9168C1041.68 48.6981 1059.37 41.47 1080.15 41.47C1099.27 41.47 1114.94 49.6441 1127.05 65.9973H1127.53V45.6177H1162.08V186.143H1127.53ZM1342.56 99.0529H1306.83C1303.51 90.9977 1298.52 84.4801 1291.62 79.2676C1284.75 74.1714 1276.31 71.5664 1266.46 71.5664C1253.28 71.5664 1242.58 75.8305 1234.4 84.2424C1226.21 92.6567 1222.16 103.201 1222.16 115.76C1222.16 128.439 1226.21 138.985 1234.4 147.397C1242.58 155.809 1253.28 159.957 1266.46 159.957C1276.31 159.957 1284.75 157.468 1291.62 152.374C1298.52 147.278 1303.51 140.644 1306.83 132.468H1342.56C1339.11 150.24 1330.68 164.34 1317.15 174.767C1303.6 185.195 1286.63 190.288 1266.46 190.288C1243.18 190.288 1224.05 183.298 1208.99 169.079C1193.9 154.86 1186.43 137.088 1186.43 115.76C1186.43 94.4322 1193.9 76.779 1208.99 62.5603C1224.05 48.3416 1243.18 41.2322 1266.46 41.2322C1286.63 41.2322 1303.51 46.4473 1317.03 56.8723C1330.45 67.2999 1338.99 81.2808 1342.56 99.0529ZM1512 115.76C1512 120.262 1511.28 125.358 1510.09 131.046H1396.46C1398.37 139.102 1403.11 146.094 1410.48 151.78C1417.83 157.587 1426.26 160.429 1435.89 160.429C1442.77 160.429 1449.07 158.889 1454.53 155.69C1459.99 152.609 1464.38 148.699 1467.46 143.96H1505C1500.01 158.06 1491.11 169.317 1478.5 177.729C1465.79 186.143 1451.55 190.288 1435.89 190.288C1414.63 190.288 1396.59 183.179 1381.75 168.844C1366.91 154.506 1359.54 136.851 1359.54 115.76C1359.54 94.7888 1366.91 77.133 1381.87 62.9168C1396.81 48.6981 1415 41.47 1436.36 41.47C1457.26 41.47 1475.08 48.6981 1489.79 63.1521C1504.51 77.6085 1512 95.1429 1512 115.76ZM1396.93 102.136H1475.08C1473.16 93.2486 1468.9 85.7826 1462 79.7406C1455.12 73.6985 1446.56 70.618 1436.36 70.618C1426.26 70.618 1417.6 73.6985 1410.48 79.7406C1403.24 85.7826 1398.72 93.2486 1396.93 102.136Z" fill="white"></path></svg>